<?xml version="1.0" standalone="no"?>
<!DOCTYPE svg PUBLIC "-//W3C//DTD SVG 20010904//EN"
 "http://www.w3.org/TR/2001/REC-SVG-20010904/DTD/svg10.dtd">
<svg version="1.0" xmlns="http://www.w3.org/2000/svg"
 width="512.000000pt" height="512.000000pt" viewBox="0 0 512.000000 512.000000"
 preserveAspectRatio="xMidYMid meet">
<metadata>
Created by potrace 1.14, written by Peter Selinger 2001-2017
</metadata>
<g transform="translate(0.000000,512.000000) scale(0.100000,-0.100000)"
fill="#000000" stroke="none">
<path d="M2379 5116 c-2 -2 -38 -6 -79 -10 -64 -6 -213 -30 -315 -51 -201 -42
-477 -149 -682 -265 -293 -166 -508 -351 -760 -653 -44 -53 -170 -244 -219
-332 -132 -238 -223 -485 -273 -740 -40 -200 -46 -267 -45 -515 0 -183 3 -241
19 -345 3 -16 7 -43 9 -60 37 -264 166 -624 307 -860 10 -16 26 -43 35 -60 56
-102 227 -322 341 -440 383 -397 907 -673 1429 -750 22 -4 50 -8 64 -11 104
-19 471 -26 600 -12 126 15 270 37 281 43 3 3 24 7 45 11 55 8 242 66 349 107
643 248 1164 757 1439 1405 36 85 113 314 121 364 3 15 12 56 20 91 36 156 49
297 50 522 0 193 -3 251 -16 330 -4 28 -10 66 -13 85 -2 19 -10 60 -16 90 -6
30 -14 66 -16 80 -3 14 -16 64 -30 112 -180 644 -608 1192 -1196 1531 -156 90
-377 187 -508 222 -8 3 -46 13 -85 24 -78 22 -246 57 -315 66 -25 3 -61 8 -80
11 -41 6 -455 15 -461 10z m427 -350 c12 -2 45 -7 75 -11 176 -22 439 -101
622 -188 99 -47 268 -142 302 -169 6 -5 42 -32 80 -60 394 -289 691 -729 819
-1211 31 -116 36 -141 64 -337 9 -64 8 -405 -2 -465 -4 -27 -8 -57 -8 -65 -1
-54 -57 -287 -95 -400 -113 -338 -284 -613 -537 -866 -109 -108 -297 -265
-316 -264 -3 1 -68 89 -145 197 -77 108 -165 230 -196 272 -67 91 -963 1333
-993 1376 -12 17 -24 32 -27 35 -4 3 -15 19 -25 35 -11 17 -44 64 -75 105 -30
41 -194 267 -363 502 -170 235 -320 439 -335 454 -91 92 -253 41 -280 -88 -5
-25 -7 -2507 -2 -2578 1 -14 23 -16 164 -14 89 1 165 2 168 3 3 0 6 448 7 994
0 545 1 1000 1 1010 1 11 63 -67 144 -180 79 -109 350 -484 602 -833 251 -349
474 -657 495 -685 117 -157 560 -778 558 -781 -6 -6 -151 -66 -208 -86 -49
-18 -164 -51 -213 -63 -10 -2 -26 -6 -35 -9 -17 -5 -49 -11 -111 -22 -18 -3
-43 -7 -55 -10 -95 -18 -399 -24 -541 -11 -764 74 -1437 540 -1775 1232 -38
77 -83 181 -100 230 -39 111 -88 300 -96 369 -3 27 -7 53 -9 56 -9 14 -19 191
-19 320 -1 261 29 451 109 697 235 718 839 1276 1578 1457 120 30 128 31 287
50 105 12 431 14 486 2z"/>
<path d="M3421 3750 c-5 -3 -7 -464 -7 -1024 l1 -1019 158 -1 c87 -1 163 1
170 4 9 4 12 235 12 1023 0 559 -2 1017 -5 1018 -18 4 -323 3 -329 -1z"/>
</g>
</svg>
